<?xml version="1.0" encoding="utf-8"?>
<!-- Generator: Adobe Illustrator 24.1.1, SVG Export Plug-In . SVG Version: 6.00 Build 0)  -->
<svg version="1.1" id="Calque_1" xmlns="http://www.w3.org/2000/svg" xmlns:xlink="http://www.w3.org/1999/xlink" x="0px" y="0px"
	 viewBox="0 0 612 792" style="enable-background:new 0 0 612 792;" xml:space="preserve">
<style type="text/css">
	.st0{fill:#555555;}
	.st1{fill:#00035C;}
	.st2{fill:#EBEBEB;}
	.st3{fill:#A26627;}
	.st4{fill:#C3C3C3;}
	.st5{fill:#FFFA9C;}
	.st6{fill:#E5843D;}
	.st7{fill:#FFFFFF;}
	.st8{fill:#8D8C8A;}
	.st9{fill:#AFAFAF;}
	.st10{fill:#5E5E5E;}
	.st11{fill:#797979;}
	.st12{fill:none;stroke:#000000;stroke-width:0.75;stroke-miterlimit:10;}
</style>
<g id="XMLID_1_">
	<g>
		<path class="st0" d="M281.2,342.7c-4.8-9.1-10.2-17.9-16.1-26.3c-3.7-5.3-7.7-10.4-11.8-15.4c-5-6-10.2-11.7-15.7-17.1
			c-5.8-5.7-11.8-11.1-18.1-16.2c-7.9-6.4-16.1-12.2-24.7-17.6c-12.1-7.5-24.8-14-38-19.5h0c-10.4-4.3-21.1-7.9-31.9-10.9
			c-0.4-0.1-0.8-0.2-1.2-0.3C99.4,213,76,209.8,51,210.1v-65.2h129.3h133.9v2.6v133.3L281.2,342.7L281.2,342.7z"/>
		<path class="st1" d="M219.3,267.8c2.2,26.2-19.3,49.6-46,48.8c-27.3-0.8-48-26.7-42.7-53.5c2.8-14.4,12.7-26.6,26.1-32.5h0
			c13.2,5.4,25.9,11.9,38,19.5C203.2,255.4,211.5,261.3,219.3,267.8L219.3,267.8z"/>
		<path class="st2" d="M51,210.1c25-0.2,48.4,2.9,72.5,9.4c-9.4,11.7-15.1,26.8-15.1,43.2c0,37.5,29.7,67.9,66.2,67.9
			c29.3,0,54.2-19.5,62.9-46.6c5.5,5.4,10.8,11.1,15.7,17.1c4.1,5,8.1,10.1,11.8,15.4L51,394.2V210.1z"/>
		<path class="st3" d="M281.2,342.7l33-61.9v117.8l-0.4,62.2c-1.7-30.8-8.1-59.3-19.1-88.3C290.8,362.3,286.3,352.3,281.2,342.7
			L281.2,342.7z"/>
		<path class="st4" d="M312.4,670v0.2l-13.8-14.3l-8.9-9.3L51.2,398.9c0,0-0.1,0-0.1,0l-0.1-0.3v-4.4l214-77.8
			c5.9,8.4,11.3,17.2,16.1,26.3c5.1,9.6,9.7,19.6,13.5,29.8c11,29,17.3,57.4,19.1,88.3l-0.1,9.6l0,4.2L312.4,670z"/>
		<path class="st5" d="M237.5,283.9c-8.7,27.1-33.6,46.6-62.9,46.6c-36.6,0-66.2-30.4-66.2-67.9c0-16.4,5.7-31.4,15.1-43.2
			c0.4,0.1,0.8,0.2,1.2,0.3c10.8,2.9,21.5,6.6,31.9,10.9c-13.3,5.9-23.3,18.1-26.1,32.5c-5.3,26.8,15.4,52.7,42.7,53.5
			c26.8,0.8,48.3-22.7,46-48.8l0.1-0.1C225.7,272.7,231.7,278.2,237.5,283.9z"/>
		<path class="st6" d="M314.1,280.8l30.9,60.6c-20,38.6-29.6,80.1-31.2,122.2c0-0.6,0-1.2-0.1-1.7c0-0.4,0-0.7-0.1-1.1l0.4-62.2
			V280.8z"/>
		<path class="st7" d="M312.4,670l1.3-195.3l0-4.2c0-2.3,0.1-4.5,0.2-6.8c0,0,0,0,0-0.1c1.5-42.1,11.2-83.6,31.2-122.2
			c3.5-6.7,7.3-13.4,11.4-20c1.2-1.7,2.4-3.3,3.6-5l0.2,0.1l213.6,77.6v4.4l0,0L334.8,647l-8.6,8.9l-13.7,14.2
			C312.5,670.1,312.4,670.1,312.4,670z"/>
		<path class="st2" d="M573.8,207.5v186.8l-213.6-77.6l-0.2-0.1c5.7-7.9,11.5-15.8,18.2-23.6c1.3-1.5,2.7-3,4-4.4l0.6,0.6
			c10.1,24.4,33.6,41.5,61,41.5c36.6,0,66.2-30.4,66.2-67.9c0-16.6-5.8-31.8-15.5-43.6l-0.2-0.8c25.4-7.6,51.7-10.9,78.3-10.7H573.8
			z"/>
		<path class="st8" d="M573.8,144.9v62.6h-1.1c-26.6-0.2-52.9,3.1-78.3,10.7c-11.4,3.4-22.7,7.6-33.7,12.8
			c-8.1,3.8-16.1,8.1-23.9,12.9c-9.5,6.8-19.1,12.3-28.6,20.4c-4.4,3.8-8.5,7.4-12.6,11.1c-4.6,4.2-9,8.4-13.4,13.1
			c-1.3,1.4-2.7,2.9-4,4.4c-6.8,7.9-12.6,15.7-18.2,23.6c-1.2,1.6-2.4,3.3-3.6,5c-4.1,6.6-7.9,13.2-11.4,20l-30.9-60.6V147.5v-2.6
			h126.6H573.8z"/>
		<polygon class="st9" points="573.8,144.9 440.7,144.9 440.7,16.5 		"/>
		<polygon class="st10" points="573.8,398.6 519.8,713.1 468.5,689.6 		"/>
		<path class="st8" d="M573.8,398.6L468.5,689.6L456.1,724c-2.2-11.6-7.2-19.8-13-19.8c-7.9,0-14.3,14.9-14.3,33.2
			c0-18.3-6.4-33.2-14.3-33.2c-2.3,0-4.6,1.3-6.5,3.7l-36.9-30.7L334.8,647L573.8,398.6C573.8,398.6,573.8,398.6,573.8,398.6z"/>
		<path class="st5" d="M494.6,218.9c9.7,11.8,15.5,27,15.5,43.6c0,37.5-29.6,67.9-66.2,67.9c-27.4,0-51-17.1-61-41.5l-0.6-0.6
			c4.4-4.7,8.8-8.9,13.4-13.1l0.4,0.5c2.1,22.9,21.3,40.8,44.7,40.8c24.8,0,44.9-20.1,44.9-44.9c0-17.5-10-32.7-24.6-40.1l-0.3-0.7
			c11-5.2,22.3-9.4,33.7-12.8L494.6,218.9z"/>
		<path class="st6" d="M471.7,704.3c7.9,0,14.3,14.9,14.3,33.2c0,18.3-6.4,33.2-14.3,33.2s-14.3-14.9-14.3-33.2
			C457.4,719.1,463.8,704.3,471.7,704.3z"/>
		<path class="st1" d="M461,231.7c14.6,7.4,24.6,22.6,24.6,40.1c0,24.8-20.1,44.9-44.9,44.9c-23.4,0-42.6-17.9-44.7-40.8l-0.4-0.5
			c4-3.7,8.2-7.3,12.6-11.1c9.5-8.2,19.1-13.6,28.6-20.4c7.8-4.8,15.8-9.1,23.9-12.9L461,231.7z"/>
		<path class="st6" d="M456.1,724c0,0.2,0.1,0.3,0.1,0.5c0.7,4,1.1,8.3,1.1,12.9c0,18.3-6.4,33.2-14.3,33.2
			c-7.9,0-14.3-14.9-14.3-33.2c0-18.3,6.4-33.2,14.3-33.2C448.9,704.3,453.9,712.4,456.1,724z"/>
		<path class="st6" d="M414.5,704.3c7.9,0,14.3,14.9,14.3,33.2c0,18.3-6.4,33.2-14.3,33.2s-14.3-14.9-14.3-33.2
			c0-12.9,3.2-24.1,7.8-29.6C409.9,705.6,412.1,704.3,414.5,704.3z"/>
		<polygon class="st11" points="334.8,647 371.1,677.2 348.9,704.3 326.2,655.9 326.2,655.9 		"/>
		<path class="st10" d="M348.9,704.3l-36.3,44.2c0,0.1-0.1,0.1-0.2,0c0,0,0-0.1,0-0.1v-78.2V670c0,0.1,0.1,0.1,0.1,0l13.7-14.2l0,0
			L348.9,704.3z"/>
		<path class="st10" d="M312.4,748.4C312.4,748.4,312.4,748.5,312.4,748.4l-0.1,0.2l-36.4-44.3l22.7-48.4l13.8,14.3V748.4z"/>
		<polygon class="st11" points="289.7,646.6 298.6,655.9 275.9,704.3 253.9,677.4 		"/>
		<path class="st8" d="M51.2,398.9l238.4,247.7l-35.8,30.8l-34.9,30c-1.9-2-3.9-3.2-6.1-3.2c-7.9,0-14.3,14.9-14.3,33.2h-0.1
			c0-18.3-6.4-33.2-14.3-33.2c-5.7,0-10.7,7.8-12.9,19.1l-12.5-33.8L51.4,399.7L51.2,398.9z"/>
		<path class="st6" d="M219,707.4c4.8,5.3,8.2,16.8,8.2,30c0,18.3-6.4,33.2-14.3,33.2c-7.9,0-14.3-14.9-14.3-33.2
			c0-18.3,6.4-33.2,14.3-33.2C215.1,704.3,217.1,705.4,219,707.4z"/>
		<path class="st6" d="M184.2,704.3c7.9,0,14.3,14.9,14.3,33.2c0,18.3-6.4,33.2-14.3,33.2c-7.9,0-14.3-14.9-14.3-33.2
			c0-5,0.5-9.8,1.3-14.1C173.5,712.1,178.5,704.3,184.2,704.3z"/>
		<polygon class="st9" points="180.3,16.5 180.3,144.9 51,144.9 		"/>
		<path class="st6" d="M155.6,704.3c7.9,0,14.3,14.9,14.3,33.2c0,18.3-6.4,33.2-14.3,33.2c-7.9,0-14.3-14.9-14.3-33.2
			C141.4,719.1,147.7,704.3,155.6,704.3z"/>
		<polygon class="st10" points="51.4,399.7 158.7,689.6 158.7,689.6 106.6,713.1 		"/>
	</g>
	<g>
		<polyline class="st12" points="51,398.6 51,394.2 51,210.1 51,144.9 180.3,144.9 314.1,144.9 440.7,144.9 573.8,144.9 
			573.8,207.5 573.8,394.2 573.8,398.6 		"/>
		<polyline class="st12" points="180.3,144.9 180.3,16.5 51,144.9 		"/>
		<polyline class="st12" points="440.7,144.9 440.7,16.5 573.8,144.9 		"/>
		<path class="st12" d="M171.3,723.4l-12.5-33.8L51.4,399.7l-0.3-0.7c0,0,0-0.1,0-0.1c0,0,0.1,0,0.1,0l238.4,247.7l8.9,9.3
			l13.8,14.3"/>
		<polyline class="st12" points="289.7,646.6 253.9,677.4 219,707.4 		"/>
		<polyline class="st12" points="408,707.9 371.1,677.2 334.8,647 		"/>
		<path class="st12" d="M313.6,474.7L312.4,670c0,0.1,0.1,0.1,0.1,0l13.7-14.2l8.6-8.9l239-248.3c0,0,0,0,0,0L468.5,689.6L456.1,724
			l-0.1,0.4"/>
		<polyline class="st12" points="314.1,147.5 314.1,280.8 314.1,398.6 313.7,460.8 313.7,470.5 		"/>
		<path class="st12" d="M371.1,677.2l-22.2,27l-36.3,44.2c0,0.1-0.1,0.1-0.2,0c0,0,0-0.1,0-0.1v-78.2V670"/>
		<polyline class="st12" points="312.4,748.7 312.3,748.6 275.9,704.3 253.9,677.4 		"/>
		<line class="st12" x1="326.2" y1="655.9" x2="348.9" y2="704.3"/>
		<line class="st12" x1="275.9" y1="704.3" x2="298.6" y2="655.9"/>
		<line class="st12" x1="519.8" y1="713.1" x2="573.8" y2="398.6"/>
		<polyline class="st12" points="51.2,398.9 51.4,399.7 106.6,713.1 		"/>
		<line class="st12" x1="158.7" y1="689.6" x2="106.6" y2="713.1"/>
		<line class="st12" x1="519.8" y1="713.1" x2="468.5" y2="689.6"/>
		<path class="st12" d="M219.3,267.8c2.2,26.2-19.3,49.6-46,48.8c-27.3-0.8-48-26.7-42.7-53.5c2.8-14.4,12.7-26.6,26.1-32.5"/>
		<path class="st12" d="M461,231.7c14.6,7.4,24.6,22.6,24.6,40.1c0,24.8-20.1,44.9-44.9,44.9c-23.4,0-42.6-17.9-44.7-40.8"/>
		<path class="st12" d="M313.9,463.6c1.5-42.1,11.2-83.6,31.2-122.2c3.5-6.7,7.3-13.4,11.4-20c1.2-1.7,2.4-3.3,3.6-5
			c5.7-7.9,11.5-15.8,18.2-23.6c1.3-1.5,2.7-3,4-4.4c4.4-4.7,8.8-8.9,13.4-13.1c4-3.7,8.2-7.3,12.6-11.1
			c9.5-8.2,19.1-13.6,28.6-20.4c7.8-4.8,15.8-9.1,23.9-12.9c11-5.2,22.3-9.4,33.7-12.8c25.4-7.6,51.7-10.9,78.3-10.7"/>
		<path class="st12" d="M313.6,475.5c0-0.3,0-0.6,0-0.8l0-4.2c0-2.3,0.1-4.5,0.2-6.8"/>
		<path class="st12" d="M51,210.1c25-0.2,48.4,2.9,72.5,9.4c0.4,0.1,0.8,0.2,1.2,0.3c10.8,2.9,21.5,6.6,31.9,10.9h0
			c13.2,5.4,25.9,11.9,38,19.5c8.6,5.4,16.9,11.2,24.7,17.6c6.3,5.1,12.3,10.5,18.1,16.2c5.5,5.4,10.8,11.1,15.7,17.1
			c4.1,5,8.1,10.1,11.8,15.4c5.9,8.4,11.3,17.2,16.1,26.3c5.1,9.6,9.7,19.6,13.5,29.8c11,29,17.3,57.4,19.1,88.3
			c0,0.4,0,0.7,0.1,1.1c0,0.6,0.1,1.2,0.1,1.7c0,0,0,0,0,0.1c0.1,3.5-0.2,6.8-0.2,13.4"/>
		<path class="st12" d="M494.6,218.9c9.7,11.8,15.5,27,15.5,43.6c0,37.5-29.6,67.9-66.2,67.9c-27.4,0-51-17.1-61-41.5"/>
		<path class="st12" d="M237.5,283.9L237.5,283.9c-8.7,27.1-33.6,46.6-62.9,46.6c-36.6,0-66.2-30.4-66.2-67.9
			c0-16.4,5.7-31.4,15.1-43.2"/>
		<line class="st12" x1="360.2" y1="316.6" x2="573.8" y2="394.2"/>
		<line class="st12" x1="51" y1="394.2" x2="265" y2="316.4"/>
		<polyline class="st12" points="281.2,342.7 314.1,280.8 345,341.4 345.2,341.8 		"/>
		<path class="st12" d="M169.9,737.5c0-18.3-6.4-33.2-14.3-33.2c-7.9,0-14.3,14.9-14.3,33.2c0,18.3,6.4,33.2,14.3,33.2
			C163.5,770.7,169.9,755.8,169.9,737.5z"/>
		<path class="st12" d="M198.5,737.5c0-18.3-6.4-33.2-14.3-33.2c-5.7,0-10.7,7.8-12.9,19.1c-0.9,4.3-1.3,9.1-1.3,14.1
			c0,18.3,6.4,33.2,14.3,33.2C192.1,770.7,198.5,755.8,198.5,737.5z"/>
		<path class="st12" d="M219,707.4c-1.9-2-3.9-3.2-6.1-3.2c-7.9,0-14.3,14.9-14.3,33.2c0,18.3,6.4,33.2,14.3,33.2
			c7.9,0,14.3-14.9,14.3-33.2C227.1,724.2,223.8,712.8,219,707.4"/>
		<path class="st12" d="M428.7,737.5c0-18.3-6.4-33.2-14.3-33.2c-2.3,0-4.6,1.3-6.5,3.7c-4.6,5.5-7.8,16.7-7.8,29.6
			c0,18.3,6.4,33.2,14.3,33.2S428.7,755.8,428.7,737.5z"/>
		<path class="st12" d="M456.2,724.5c0-0.2-0.1-0.4-0.1-0.5c-2.2-11.6-7.2-19.8-13-19.8c-7.9,0-14.3,14.9-14.3,33.2
			c0,18.3,6.4,33.2,14.3,33.2c7.9,0,14.3-14.9,14.3-33.2C457.3,732.9,456.9,728.5,456.2,724.5"/>
		<path class="st12" d="M486,737.5c0-18.3-6.4-33.2-14.3-33.2s-14.3,14.9-14.3,33.2c0,18.3,6.4,33.2,14.3,33.2S486,755.8,486,737.5z
			"/>
	</g>
</g>
</svg>
